<svg width="32" height="32" viewBox="0 0 32 32" fill="none" xmlns="http://www.w3.org/2000/svg">
<g clip-path="url(#clip0_285_73)">
<path d="M5.33329 26.6668C4.59996 26.6668 3.97196 26.4055 3.44929 25.8828C2.92663 25.3602 2.66574 24.7326 2.66663 24.0002V8.00016C2.66663 7.26683 2.92796 6.63883 3.45063 6.11616C3.97329 5.5935 4.60085 5.33261 5.33329 5.3335H26.6666C27.4 5.3335 28.028 5.59483 28.5506 6.1175C29.0733 6.64016 29.3342 7.26772 29.3333 8.00016V16.0002H5.33329V24.0002H18.6666V26.6668H5.33329ZM5.33329 10.6668H26.6666V8.00016H5.33329V10.6668ZM25.3333 29.3335V25.3335H21.3333V22.6668H25.3333V18.6668H28V22.6668H32V25.3335H28V29.3335H25.3333Z" fill="white" fill-opacity="0.6"/>
</g>
<defs>
<clipPath id="clip0_285_73">
<rect width="32" height="32" fill="white"/>
</clipPath>
</defs>
</svg>
